<svg width="24" height="24" viewBox="0 0 24 24" fill="none" xmlns="http://www.w3.org/2000/svg">
<path d="M9.55006 15.15L18.0251 6.675C18.2251 6.475 18.4584 6.375 18.7251 6.375C18.9917 6.375 19.2251 6.475 19.4251 6.675C19.6251 6.875 19.7251 7.11267 19.7251 7.388C19.7251 7.66333 19.6251 7.90067 19.4251 8.1L10.2501 17.3C10.0501 17.5 9.81673 17.6 9.55006 17.6C9.28339 17.6 9.05006 17.5 8.85006 17.3L4.55006 13C4.35006 12.8 4.25406 12.5627 4.26206 12.288C4.27006 12.0133 4.37439 11.7757 4.57506 11.575C4.77572 11.3743 5.01339 11.2743 5.28806 11.275C5.56272 11.2757 5.80006 11.3757 6.00006 11.575L9.55006 15.15Z" fill="#48C30B"/>
</svg>
